<mxfile host="Electron" agent="Mozilla/5.0 (X11; Linux x86_64) AppleWebKit/537.36 (KHTML, like Gecko) draw.io/25.0.2 Chrome/128.0.6613.186 Electron/32.2.5 Safari/537.36" version="25.0.2">
  <diagram name="Page-1" id="WrA1QMiTY61BVqhKqg4j">
    <mxGraphModel dx="1424" dy="1236" grid="0" gridSize="10" guides="1" tooltips="1" connect="1" arrows="1" fold="1" page="0" pageScale="1" pageWidth="850" pageHeight="1100" math="0" shadow="0">
      <root>
        <mxCell id="0" />
        <mxCell id="1" parent="0" />
        <mxCell id="CFO1gUM0kOhrqVEVGsSR-1" value="Yui LLM Callables Methods" style="swimlane;fontStyle=0;childLayout=stackLayout;horizontal=1;startSize=30;horizontalStack=0;resizeParent=1;resizeParentMax=0;resizeLast=0;collapsible=1;marginBottom=0;whiteSpace=wrap;html=1;" parent="1" vertex="1">
          <mxGeometry x="467" y="6" width="272" height="360" as="geometry" />
        </mxCell>
        <mxCell id="CFO1gUM0kOhrqVEVGsSR-17" value="AskUser (Question)" style="text;strokeColor=none;fillColor=none;align=left;verticalAlign=middle;spacingLeft=4;spacingRight=4;overflow=hidden;points=[[0,0.5],[1,0.5]];portConstraint=eastwest;rotatable=0;whiteSpace=wrap;html=1;" parent="CFO1gUM0kOhrqVEVGsSR-1" vertex="1">
          <mxGeometry y="30" width="272" height="30" as="geometry" />
        </mxCell>
        <mxCell id="CFO1gUM0kOhrqVEVGsSR-18" value="SayOutloud (String)" style="text;strokeColor=none;fillColor=none;align=left;verticalAlign=middle;spacingLeft=4;spacingRight=4;overflow=hidden;points=[[0,0.5],[1,0.5]];portConstraint=eastwest;rotatable=0;whiteSpace=wrap;html=1;" parent="CFO1gUM0kOhrqVEVGsSR-1" vertex="1">
          <mxGeometry y="60" width="272" height="30" as="geometry" />
        </mxCell>
        <mxCell id="CFO1gUM0kOhrqVEVGsSR-2" value="SetEntityState (Entity, State)" style="text;strokeColor=none;fillColor=none;align=left;verticalAlign=middle;spacingLeft=4;spacingRight=4;overflow=hidden;points=[[0,0.5],[1,0.5]];portConstraint=eastwest;rotatable=0;whiteSpace=wrap;html=1;" parent="CFO1gUM0kOhrqVEVGsSR-1" vertex="1">
          <mxGeometry y="90" width="272" height="30" as="geometry" />
        </mxCell>
        <mxCell id="CFO1gUM0kOhrqVEVGsSR-6" value="GetWeather (City, Time)" style="text;strokeColor=none;fillColor=none;align=left;verticalAlign=middle;spacingLeft=4;spacingRight=4;overflow=hidden;points=[[0,0.5],[1,0.5]];portConstraint=eastwest;rotatable=0;whiteSpace=wrap;html=1;" parent="CFO1gUM0kOhrqVEVGsSR-1" vertex="1">
          <mxGeometry y="120" width="272" height="30" as="geometry" />
        </mxCell>
        <mxCell id="CFO1gUM0kOhrqVEVGsSR-7" value="OpenBrowser ()" style="text;strokeColor=none;fillColor=none;align=left;verticalAlign=middle;spacingLeft=4;spacingRight=4;overflow=hidden;points=[[0,0.5],[1,0.5]];portConstraint=eastwest;rotatable=0;whiteSpace=wrap;html=1;" parent="CFO1gUM0kOhrqVEVGsSR-1" vertex="1">
          <mxGeometry y="150" width="272" height="30" as="geometry" />
        </mxCell>
        <mxCell id="CFO1gUM0kOhrqVEVGsSR-8" value="GoToUrl (Url)" style="text;strokeColor=none;fillColor=none;align=left;verticalAlign=middle;spacingLeft=4;spacingRight=4;overflow=hidden;points=[[0,0.5],[1,0.5]];portConstraint=eastwest;rotatable=0;whiteSpace=wrap;html=1;" parent="CFO1gUM0kOhrqVEVGsSR-1" vertex="1">
          <mxGeometry y="180" width="272" height="30" as="geometry" />
        </mxCell>
        <mxCell id="CFO1gUM0kOhrqVEVGsSR-9" value="GetPageContent ()" style="text;strokeColor=none;fillColor=none;align=left;verticalAlign=middle;spacingLeft=4;spacingRight=4;overflow=hidden;points=[[0,0.5],[1,0.5]];portConstraint=eastwest;rotatable=0;whiteSpace=wrap;html=1;" parent="CFO1gUM0kOhrqVEVGsSR-1" vertex="1">
          <mxGeometry y="210" width="272" height="30" as="geometry" />
        </mxCell>
        <mxCell id="CFO1gUM0kOhrqVEVGsSR-10" value="GetInputsElements ()" style="text;strokeColor=none;fillColor=none;align=left;verticalAlign=middle;spacingLeft=4;spacingRight=4;overflow=hidden;points=[[0,0.5],[1,0.5]];portConstraint=eastwest;rotatable=0;whiteSpace=wrap;html=1;" parent="CFO1gUM0kOhrqVEVGsSR-1" vertex="1">
          <mxGeometry y="240" width="272" height="30" as="geometry" />
        </mxCell>
        <mxCell id="CFO1gUM0kOhrqVEVGsSR-12" value="GetTriggerableElements ()" style="text;strokeColor=none;fillColor=none;align=left;verticalAlign=middle;spacingLeft=4;spacingRight=4;overflow=hidden;points=[[0,0.5],[1,0.5]];portConstraint=eastwest;rotatable=0;whiteSpace=wrap;html=1;" parent="CFO1gUM0kOhrqVEVGsSR-1" vertex="1">
          <mxGeometry y="270" width="272" height="30" as="geometry" />
        </mxCell>
        <mxCell id="CFO1gUM0kOhrqVEVGsSR-14" value="ClickOnElement (Selector)" style="text;strokeColor=none;fillColor=none;align=left;verticalAlign=middle;spacingLeft=4;spacingRight=4;overflow=hidden;points=[[0,0.5],[1,0.5]];portConstraint=eastwest;rotatable=0;whiteSpace=wrap;html=1;" parent="CFO1gUM0kOhrqVEVGsSR-1" vertex="1">
          <mxGeometry y="300" width="272" height="30" as="geometry" />
        </mxCell>
        <mxCell id="CFO1gUM0kOhrqVEVGsSR-13" value="FillAndSubmitInput (Selector, Value)" style="text;strokeColor=none;fillColor=none;align=left;verticalAlign=middle;spacingLeft=4;spacingRight=4;overflow=hidden;points=[[0,0.5],[1,0.5]];portConstraint=eastwest;rotatable=0;whiteSpace=wrap;html=1;" parent="CFO1gUM0kOhrqVEVGsSR-1" vertex="1">
          <mxGeometry y="330" width="272" height="30" as="geometry" />
        </mxCell>
        <mxCell id="CFO1gUM0kOhrqVEVGsSR-19" value="Taiwa (LLM Controller)" style="swimlane;fontStyle=0;childLayout=stackLayout;horizontal=1;startSize=30;horizontalStack=0;resizeParent=1;resizeParentMax=0;resizeLast=0;collapsible=1;marginBottom=0;whiteSpace=wrap;html=1;" parent="1" vertex="1">
          <mxGeometry x="245" y="6" width="183" height="60" as="geometry" />
        </mxCell>
        <mxCell id="CFO1gUM0kOhrqVEVGsSR-20" value="Generate(Payload)" style="text;strokeColor=none;fillColor=none;align=left;verticalAlign=middle;spacingLeft=4;spacingRight=4;overflow=hidden;points=[[0,0.5],[1,0.5]];portConstraint=eastwest;rotatable=0;whiteSpace=wrap;html=1;" parent="CFO1gUM0kOhrqVEVGsSR-19" vertex="1">
          <mxGeometry y="30" width="183" height="30" as="geometry" />
        </mxCell>
        <mxCell id="CFO1gUM0kOhrqVEVGsSR-23" value="Rekishi (Data Controller)" style="swimlane;fontStyle=0;childLayout=stackLayout;horizontal=1;startSize=30;horizontalStack=0;resizeParent=1;resizeParentMax=0;resizeLast=0;collapsible=1;marginBottom=0;whiteSpace=wrap;html=1;" parent="1" vertex="1">
          <mxGeometry x="25" y="6" width="183" height="240" as="geometry" />
        </mxCell>
        <mxCell id="CFO1gUM0kOhrqVEVGsSR-37" value="NewStoryBegin()" style="text;strokeColor=none;fillColor=none;align=left;verticalAlign=middle;spacingLeft=4;spacingRight=4;overflow=hidden;points=[[0,0.5],[1,0.5]];portConstraint=eastwest;rotatable=0;whiteSpace=wrap;html=1;" parent="CFO1gUM0kOhrqVEVGsSR-23" vertex="1">
          <mxGeometry y="30" width="183" height="30" as="geometry" />
        </mxCell>
        <mxCell id="CFO1gUM0kOhrqVEVGsSR-24" value="SaveStory(Payload)" style="text;strokeColor=none;fillColor=none;align=left;verticalAlign=middle;spacingLeft=4;spacingRight=4;overflow=hidden;points=[[0,0.5],[1,0.5]];portConstraint=eastwest;rotatable=0;whiteSpace=wrap;html=1;" parent="CFO1gUM0kOhrqVEVGsSR-23" vertex="1">
          <mxGeometry y="60" width="183" height="30" as="geometry" />
        </mxCell>
        <mxCell id="CFO1gUM0kOhrqVEVGsSR-26" value="ListStories()" style="text;strokeColor=none;fillColor=none;align=left;verticalAlign=middle;spacingLeft=4;spacingRight=4;overflow=hidden;points=[[0,0.5],[1,0.5]];portConstraint=eastwest;rotatable=0;whiteSpace=wrap;html=1;" parent="CFO1gUM0kOhrqVEVGsSR-23" vertex="1">
          <mxGeometry y="90" width="183" height="30" as="geometry" />
        </mxCell>
        <mxCell id="CFO1gUM0kOhrqVEVGsSR-25" value="GetStory(Id)" style="text;strokeColor=none;fillColor=none;align=left;verticalAlign=middle;spacingLeft=4;spacingRight=4;overflow=hidden;points=[[0,0.5],[1,0.5]];portConstraint=eastwest;rotatable=0;whiteSpace=wrap;html=1;" parent="CFO1gUM0kOhrqVEVGsSR-23" vertex="1">
          <mxGeometry y="120" width="183" height="30" as="geometry" />
        </mxCell>
        <mxCell id="CFO1gUM0kOhrqVEVGsSR-28" value="DeleteStory(Id)" style="text;strokeColor=none;fillColor=none;align=left;verticalAlign=middle;spacingLeft=4;spacingRight=4;overflow=hidden;points=[[0,0.5],[1,0.5]];portConstraint=eastwest;rotatable=0;whiteSpace=wrap;html=1;" parent="CFO1gUM0kOhrqVEVGsSR-23" vertex="1">
          <mxGeometry y="150" width="183" height="30" as="geometry" />
        </mxCell>
        <mxCell id="CFO1gUM0kOhrqVEVGsSR-41" value="SummarizeStory(Payload)" style="text;strokeColor=none;fillColor=none;align=left;verticalAlign=middle;spacingLeft=4;spacingRight=4;overflow=hidden;points=[[0,0.5],[1,0.5]];portConstraint=eastwest;rotatable=0;whiteSpace=wrap;html=1;" parent="CFO1gUM0kOhrqVEVGsSR-23" vertex="1">
          <mxGeometry y="180" width="183" height="30" as="geometry" />
        </mxCell>
        <mxCell id="CFO1gUM0kOhrqVEVGsSR-44" value="ResumeStory(Id)" style="text;strokeColor=none;fillColor=none;align=left;verticalAlign=middle;spacingLeft=4;spacingRight=4;overflow=hidden;points=[[0,0.5],[1,0.5]];portConstraint=eastwest;rotatable=0;whiteSpace=wrap;html=1;" parent="CFO1gUM0kOhrqVEVGsSR-23" vertex="1">
          <mxGeometry y="210" width="183" height="30" as="geometry" />
        </mxCell>
        <mxCell id="CFO1gUM0kOhrqVEVGsSR-32" value="Yui Web Listener" style="swimlane;fontStyle=0;childLayout=stackLayout;horizontal=1;startSize=30;horizontalStack=0;resizeParent=1;resizeParentMax=0;resizeLast=0;collapsible=1;marginBottom=0;whiteSpace=wrap;html=1;" parent="1" vertex="1">
          <mxGeometry x="25" y="-98" width="182" height="60" as="geometry" />
        </mxCell>
        <mxCell id="CFO1gUM0kOhrqVEVGsSR-30" value="Order (Order)&amp;nbsp;" style="text;strokeColor=none;fillColor=none;align=left;verticalAlign=middle;spacingLeft=4;spacingRight=4;overflow=hidden;points=[[0,0.5],[1,0.5]];portConstraint=eastwest;rotatable=0;whiteSpace=wrap;html=1;" parent="CFO1gUM0kOhrqVEVGsSR-32" vertex="1">
          <mxGeometry y="30" width="182" height="30" as="geometry" />
        </mxCell>
        <mxCell id="CFO1gUM0kOhrqVEVGsSR-36" value="Yui Private Methods" style="swimlane;fontStyle=0;childLayout=stackLayout;horizontal=1;startSize=30;horizontalStack=0;resizeParent=1;resizeParentMax=0;resizeLast=0;collapsible=1;marginBottom=0;whiteSpace=wrap;html=1;" parent="1" vertex="1">
          <mxGeometry x="468" y="-164" width="271" height="120" as="geometry" />
        </mxCell>
        <mxCell id="CFO1gUM0kOhrqVEVGsSR-39" value="SendToLLM (LLM, Payload)&amp;nbsp;" style="text;strokeColor=none;fillColor=none;align=left;verticalAlign=middle;spacingLeft=4;spacingRight=4;overflow=hidden;points=[[0,0.5],[1,0.5]];portConstraint=eastwest;rotatable=0;whiteSpace=wrap;html=1;" parent="CFO1gUM0kOhrqVEVGsSR-36" vertex="1">
          <mxGeometry y="30" width="271" height="30" as="geometry" />
        </mxCell>
        <mxCell id="CFO1gUM0kOhrqVEVGsSR-40" value="GetCategory(Payload)" style="text;strokeColor=none;fillColor=none;align=left;verticalAlign=middle;spacingLeft=4;spacingRight=4;overflow=hidden;points=[[0,0.5],[1,0.5]];portConstraint=eastwest;rotatable=0;whiteSpace=wrap;html=1;" parent="CFO1gUM0kOhrqVEVGsSR-36" vertex="1">
          <mxGeometry y="60" width="271" height="30" as="geometry" />
        </mxCell>
        <mxCell id="CFO1gUM0kOhrqVEVGsSR-38" value="GetLlmSystemPrompt(Category)" style="text;strokeColor=none;fillColor=none;align=left;verticalAlign=middle;spacingLeft=4;spacingRight=4;overflow=hidden;points=[[0,0.5],[1,0.5]];portConstraint=eastwest;rotatable=0;whiteSpace=wrap;html=1;" parent="CFO1gUM0kOhrqVEVGsSR-36" vertex="1">
          <mxGeometry y="90" width="271" height="30" as="geometry" />
        </mxCell>
        <mxCell id="WALPeWc3j1hRbeoU2k2u-3" value="Order (Order)&amp;nbsp;" style="text;strokeColor=none;fillColor=none;align=left;verticalAlign=middle;spacingLeft=4;spacingRight=4;overflow=hidden;points=[[0,0.5],[1,0.5]];portConstraint=eastwest;rotatable=0;whiteSpace=wrap;html=1;" vertex="1" parent="1">
          <mxGeometry x="808" y="-164" width="182" height="30" as="geometry" />
        </mxCell>
        <mxCell id="WALPeWc3j1hRbeoU2k2u-4" value="NewStoryBegin()" style="text;strokeColor=none;fillColor=none;align=left;verticalAlign=middle;spacingLeft=4;spacingRight=4;overflow=hidden;points=[[0,0.5],[1,0.5]];portConstraint=eastwest;rotatable=0;whiteSpace=wrap;html=1;" vertex="1" parent="1">
          <mxGeometry x="959" y="-164" width="183" height="30" as="geometry" />
        </mxCell>
        <mxCell id="WALPeWc3j1hRbeoU2k2u-5" value="SendToLLM (Router, Payload)&amp;nbsp;" style="text;strokeColor=none;fillColor=none;align=left;verticalAlign=middle;spacingLeft=4;spacingRight=4;overflow=hidden;points=[[0,0.5],[1,0.5]];portConstraint=eastwest;rotatable=0;whiteSpace=wrap;html=1;" vertex="1" parent="1">
          <mxGeometry x="992" y="-101" width="271" height="30" as="geometry" />
        </mxCell>
        <mxCell id="WALPeWc3j1hRbeoU2k2u-6" value="GetLlmSystemPrompt(Router)" style="text;strokeColor=none;fillColor=none;align=left;verticalAlign=middle;spacingLeft=4;spacingRight=4;overflow=hidden;points=[[0,0.5],[1,0.5]];portConstraint=eastwest;rotatable=0;whiteSpace=wrap;html=1;" vertex="1" parent="1">
          <mxGeometry x="1043" y="-71" width="271" height="30" as="geometry" />
        </mxCell>
        <mxCell id="WALPeWc3j1hRbeoU2k2u-7" value="GetCategory(Payload)" style="text;strokeColor=none;fillColor=none;align=left;verticalAlign=middle;spacingLeft=4;spacingRight=4;overflow=hidden;points=[[0,0.5],[1,0.5]];portConstraint=eastwest;rotatable=0;whiteSpace=wrap;html=1;" vertex="1" parent="1">
          <mxGeometry x="959" y="-125" width="271" height="30" as="geometry" />
        </mxCell>
        <mxCell id="WALPeWc3j1hRbeoU2k2u-8" value="Generate(Payload)" style="text;strokeColor=none;fillColor=none;align=left;verticalAlign=middle;spacingLeft=4;spacingRight=4;overflow=hidden;points=[[0,0.5],[1,0.5]];portConstraint=eastwest;rotatable=0;whiteSpace=wrap;html=1;" vertex="1" parent="1">
          <mxGeometry x="1041" y="-44" width="183" height="30" as="geometry" />
        </mxCell>
        <mxCell id="WALPeWc3j1hRbeoU2k2u-9" value="SendToLLM (Category, Payload)&amp;nbsp;" style="text;strokeColor=none;fillColor=none;align=left;verticalAlign=middle;spacingLeft=4;spacingRight=4;overflow=hidden;points=[[0,0.5],[1,0.5]];portConstraint=eastwest;rotatable=0;whiteSpace=wrap;html=1;" vertex="1" parent="1">
          <mxGeometry x="959" y="-20" width="271" height="30" as="geometry" />
        </mxCell>
        <mxCell id="WALPeWc3j1hRbeoU2k2u-10" value="Generate(Payload)" style="text;strokeColor=none;fillColor=none;align=left;verticalAlign=middle;spacingLeft=4;spacingRight=4;overflow=hidden;points=[[0,0.5],[1,0.5]];portConstraint=eastwest;rotatable=0;whiteSpace=wrap;html=1;" vertex="1" parent="1">
          <mxGeometry x="990" y="21" width="183" height="30" as="geometry" />
        </mxCell>
        <mxCell id="WALPeWc3j1hRbeoU2k2u-11" value="" style="strokeWidth=2;html=1;shape=mxgraph.flowchart.annotation_1;align=left;pointerEvents=1;" vertex="1" parent="1">
          <mxGeometry x="949" y="85" width="10" height="104" as="geometry" />
        </mxCell>
        <mxCell id="WALPeWc3j1hRbeoU2k2u-12" value="ParseLlmResponse(Payload)" style="text;strokeColor=none;fillColor=none;align=left;verticalAlign=middle;spacingLeft=4;spacingRight=4;overflow=hidden;points=[[0,0.5],[1,0.5]];portConstraint=eastwest;rotatable=0;whiteSpace=wrap;html=1;" vertex="1" parent="1">
          <mxGeometry x="966" y="47" width="183" height="30" as="geometry" />
        </mxCell>
        <mxCell id="WALPeWc3j1hRbeoU2k2u-13" value="While commands in Response" style="text;strokeColor=none;fillColor=none;align=left;verticalAlign=middle;spacingLeft=4;spacingRight=4;overflow=hidden;points=[[0,0.5],[1,0.5]];portConstraint=eastwest;rotatable=0;whiteSpace=wrap;html=1;" vertex="1" parent="1">
          <mxGeometry x="966" y="69" width="183" height="30" as="geometry" />
        </mxCell>
        <mxCell id="WALPeWc3j1hRbeoU2k2u-14" value="Evaluate(commands)" style="text;strokeColor=none;fillColor=none;align=left;verticalAlign=middle;spacingLeft=4;spacingRight=4;overflow=hidden;points=[[0,0.5],[1,0.5]];portConstraint=eastwest;rotatable=0;whiteSpace=wrap;html=1;" vertex="1" parent="1">
          <mxGeometry x="967" y="90" width="183" height="30" as="geometry" />
        </mxCell>
        <mxCell id="WALPeWc3j1hRbeoU2k2u-15" value="SendToLLM (Category, Payload)&amp;nbsp;" style="text;strokeColor=none;fillColor=none;align=left;verticalAlign=middle;spacingLeft=4;spacingRight=4;overflow=hidden;points=[[0,0.5],[1,0.5]];portConstraint=eastwest;rotatable=0;whiteSpace=wrap;html=1;" vertex="1" parent="1">
          <mxGeometry x="967" y="111" width="271" height="30" as="geometry" />
        </mxCell>
        <mxCell id="WALPeWc3j1hRbeoU2k2u-16" value="Generate(Payload)" style="text;strokeColor=none;fillColor=none;align=left;verticalAlign=middle;spacingLeft=4;spacingRight=4;overflow=hidden;points=[[0,0.5],[1,0.5]];portConstraint=eastwest;rotatable=0;whiteSpace=wrap;html=1;" vertex="1" parent="1">
          <mxGeometry x="1003" y="136" width="183" height="30" as="geometry" />
        </mxCell>
        <mxCell id="WALPeWc3j1hRbeoU2k2u-17" value="ParseLlmResponse(Payload)" style="text;strokeColor=none;fillColor=none;align=left;verticalAlign=middle;spacingLeft=4;spacingRight=4;overflow=hidden;points=[[0,0.5],[1,0.5]];portConstraint=eastwest;rotatable=0;whiteSpace=wrap;html=1;" vertex="1" parent="1">
          <mxGeometry x="967" y="162" width="183" height="30" as="geometry" />
        </mxCell>
        <mxCell id="WALPeWc3j1hRbeoU2k2u-19" value="" style="endArrow=classic;html=1;rounded=0;exitX=1;exitY=0.5;exitDx=0;exitDy=0;entryX=-0.011;entryY=0.027;entryDx=0;entryDy=0;entryPerimeter=0;" edge="1" parent="1" source="WALPeWc3j1hRbeoU2k2u-14" target="WALPeWc3j1hRbeoU2k2u-20">
          <mxGeometry width="50" height="50" relative="1" as="geometry">
            <mxPoint x="1046" y="207" as="sourcePoint" />
            <mxPoint x="1266" y="92" as="targetPoint" />
          </mxGeometry>
        </mxCell>
        <mxCell id="WALPeWc3j1hRbeoU2k2u-20" value="Yui LLM Callables Methods" style="swimlane;fontStyle=0;childLayout=stackLayout;horizontal=1;startSize=30;horizontalStack=0;resizeParent=1;resizeParentMax=0;resizeLast=0;collapsible=1;marginBottom=0;whiteSpace=wrap;html=1;" vertex="1" parent="1">
          <mxGeometry x="1268" y="96" width="272" height="330" as="geometry" />
        </mxCell>
        <mxCell id="WALPeWc3j1hRbeoU2k2u-21" value="AskUser (Question)" style="text;strokeColor=none;fillColor=none;align=left;verticalAlign=middle;spacingLeft=4;spacingRight=4;overflow=hidden;points=[[0,0.5],[1,0.5]];portConstraint=eastwest;rotatable=0;whiteSpace=wrap;html=1;" vertex="1" parent="WALPeWc3j1hRbeoU2k2u-20">
          <mxGeometry y="30" width="272" height="30" as="geometry" />
        </mxCell>
        <mxCell id="WALPeWc3j1hRbeoU2k2u-23" value="SetEntityState (Entity, State)" style="text;strokeColor=none;fillColor=none;align=left;verticalAlign=middle;spacingLeft=4;spacingRight=4;overflow=hidden;points=[[0,0.5],[1,0.5]];portConstraint=eastwest;rotatable=0;whiteSpace=wrap;html=1;" vertex="1" parent="WALPeWc3j1hRbeoU2k2u-20">
          <mxGeometry y="60" width="272" height="30" as="geometry" />
        </mxCell>
        <mxCell id="WALPeWc3j1hRbeoU2k2u-24" value="GetWeather (City, Time)" style="text;strokeColor=none;fillColor=none;align=left;verticalAlign=middle;spacingLeft=4;spacingRight=4;overflow=hidden;points=[[0,0.5],[1,0.5]];portConstraint=eastwest;rotatable=0;whiteSpace=wrap;html=1;" vertex="1" parent="WALPeWc3j1hRbeoU2k2u-20">
          <mxGeometry y="90" width="272" height="30" as="geometry" />
        </mxCell>
        <mxCell id="WALPeWc3j1hRbeoU2k2u-25" value="OpenBrowser ()" style="text;strokeColor=none;fillColor=none;align=left;verticalAlign=middle;spacingLeft=4;spacingRight=4;overflow=hidden;points=[[0,0.5],[1,0.5]];portConstraint=eastwest;rotatable=0;whiteSpace=wrap;html=1;" vertex="1" parent="WALPeWc3j1hRbeoU2k2u-20">
          <mxGeometry y="120" width="272" height="30" as="geometry" />
        </mxCell>
        <mxCell id="WALPeWc3j1hRbeoU2k2u-26" value="GoToUrl (Url)" style="text;strokeColor=none;fillColor=none;align=left;verticalAlign=middle;spacingLeft=4;spacingRight=4;overflow=hidden;points=[[0,0.5],[1,0.5]];portConstraint=eastwest;rotatable=0;whiteSpace=wrap;html=1;" vertex="1" parent="WALPeWc3j1hRbeoU2k2u-20">
          <mxGeometry y="150" width="272" height="30" as="geometry" />
        </mxCell>
        <mxCell id="WALPeWc3j1hRbeoU2k2u-27" value="GetPageContent ()" style="text;strokeColor=none;fillColor=none;align=left;verticalAlign=middle;spacingLeft=4;spacingRight=4;overflow=hidden;points=[[0,0.5],[1,0.5]];portConstraint=eastwest;rotatable=0;whiteSpace=wrap;html=1;" vertex="1" parent="WALPeWc3j1hRbeoU2k2u-20">
          <mxGeometry y="180" width="272" height="30" as="geometry" />
        </mxCell>
        <mxCell id="WALPeWc3j1hRbeoU2k2u-28" value="GetInputsElements ()" style="text;strokeColor=none;fillColor=none;align=left;verticalAlign=middle;spacingLeft=4;spacingRight=4;overflow=hidden;points=[[0,0.5],[1,0.5]];portConstraint=eastwest;rotatable=0;whiteSpace=wrap;html=1;" vertex="1" parent="WALPeWc3j1hRbeoU2k2u-20">
          <mxGeometry y="210" width="272" height="30" as="geometry" />
        </mxCell>
        <mxCell id="WALPeWc3j1hRbeoU2k2u-29" value="GetTriggerableElements ()" style="text;strokeColor=none;fillColor=none;align=left;verticalAlign=middle;spacingLeft=4;spacingRight=4;overflow=hidden;points=[[0,0.5],[1,0.5]];portConstraint=eastwest;rotatable=0;whiteSpace=wrap;html=1;" vertex="1" parent="WALPeWc3j1hRbeoU2k2u-20">
          <mxGeometry y="240" width="272" height="30" as="geometry" />
        </mxCell>
        <mxCell id="WALPeWc3j1hRbeoU2k2u-30" value="ClickOnElement (Selector)" style="text;strokeColor=none;fillColor=none;align=left;verticalAlign=middle;spacingLeft=4;spacingRight=4;overflow=hidden;points=[[0,0.5],[1,0.5]];portConstraint=eastwest;rotatable=0;whiteSpace=wrap;html=1;" vertex="1" parent="WALPeWc3j1hRbeoU2k2u-20">
          <mxGeometry y="270" width="272" height="30" as="geometry" />
        </mxCell>
        <mxCell id="WALPeWc3j1hRbeoU2k2u-31" value="FillAndSubmitInput (Selector, Value)" style="text;strokeColor=none;fillColor=none;align=left;verticalAlign=middle;spacingLeft=4;spacingRight=4;overflow=hidden;points=[[0,0.5],[1,0.5]];portConstraint=eastwest;rotatable=0;whiteSpace=wrap;html=1;" vertex="1" parent="WALPeWc3j1hRbeoU2k2u-20">
          <mxGeometry y="300" width="272" height="30" as="geometry" />
        </mxCell>
        <mxCell id="WALPeWc3j1hRbeoU2k2u-32" value="" style="strokeWidth=2;html=1;shape=mxgraph.flowchart.annotation_1;align=left;pointerEvents=1;" vertex="1" parent="1">
          <mxGeometry x="907" y="-150" width="50" height="429" as="geometry" />
        </mxCell>
        <mxCell id="WALPeWc3j1hRbeoU2k2u-33" value="SaveStory(Payload)" style="text;strokeColor=none;fillColor=none;align=left;verticalAlign=middle;spacingLeft=4;spacingRight=4;overflow=hidden;points=[[0,0.5],[1,0.5]];portConstraint=eastwest;rotatable=0;whiteSpace=wrap;html=1;" vertex="1" parent="1">
          <mxGeometry x="959" y="219" width="183" height="30" as="geometry" />
        </mxCell>
        <mxCell id="WALPeWc3j1hRbeoU2k2u-34" value="ResumeStory(Id)" style="text;strokeColor=none;fillColor=none;align=left;verticalAlign=middle;spacingLeft=4;spacingRight=4;overflow=hidden;points=[[0,0.5],[1,0.5]];portConstraint=eastwest;rotatable=0;whiteSpace=wrap;html=1;" vertex="1" parent="1">
          <mxGeometry x="987" y="246" width="183" height="30" as="geometry" />
        </mxCell>
        <mxCell id="WALPeWc3j1hRbeoU2k2u-36" value="SendToTts(Payload)" style="text;strokeColor=none;fillColor=none;align=left;verticalAlign=middle;spacingLeft=4;spacingRight=4;overflow=hidden;points=[[0,0.5],[1,0.5]];portConstraint=eastwest;rotatable=0;whiteSpace=wrap;html=1;" vertex="1" parent="1">
          <mxGeometry x="478" y="-34" width="271" height="30" as="geometry" />
        </mxCell>
        <mxCell id="WALPeWc3j1hRbeoU2k2u-35" value="SendToTts(Output)" style="text;strokeColor=none;fillColor=none;align=left;verticalAlign=middle;spacingLeft=4;spacingRight=4;overflow=hidden;points=[[0,0.5],[1,0.5]];portConstraint=eastwest;rotatable=0;whiteSpace=wrap;html=1;" vertex="1" parent="1">
          <mxGeometry x="959" y="187" width="271" height="30" as="geometry" />
        </mxCell>
        <mxCell id="WALPeWc3j1hRbeoU2k2u-37" value="GetLlmSystemPrompt(Category)" style="text;strokeColor=none;fillColor=none;align=left;verticalAlign=middle;spacingLeft=4;spacingRight=4;overflow=hidden;points=[[0,0.5],[1,0.5]];portConstraint=eastwest;rotatable=0;whiteSpace=wrap;html=1;" vertex="1" parent="1">
          <mxGeometry x="990" y="1" width="271" height="30" as="geometry" />
        </mxCell>
      </root>
    </mxGraphModel>
  </diagram>
</mxfile>
